<svg width="36" height="36" viewBox="0 0 36 36" fill="none" xmlns="http://www.w3.org/2000/svg">
<g clip-path="url(#clip0_2_19)">
<path d="M35.6908 0.308962C35.2788 -0.102999 34.6113 -0.102999 34.1994 0.309032L29.9543 4.55415C28.7819 4.02786 27.3163 4.20702 26.3846 5.14098L24.7686 6.75599C24.7626 6.76203 24.7609 6.77026 24.755 6.77645C25.6508 7.3303 26.4954 7.97865 27.2581 8.74175C28.0281 9.51153 28.6739 10.3568 29.2221 11.2456C29.2286 11.2394 29.2374 11.2376 29.2438 11.2312L30.8588 9.61616C31.8288 8.6462 32.0105 7.21309 31.4539 6.03725L35.6907 1.80043C36.1027 1.3884 36.1027 0.720923 35.6908 0.308962Z" fill="#FFFFFF"/>
<path d="M26.437 11.0542L21.8863 15.6049C22.4403 16.7788 22.261 18.213 21.2916 19.1824L18.3088 22.1652C17.07 23.4039 15.0682 23.3999 13.8345 22.1663V22.1652H13.8334C12.5998 20.9316 12.5957 18.9297 13.8345 17.691L16.8173 14.7082C17.7868 13.7387 19.221 13.5593 20.3949 14.1134L24.9456 9.5627C20.3921 5.77644 13.6276 5.9667 9.35917 10.2329L3.39259 16.1997C-1.13005 20.7224 -1.13103 28.0836 3.39259 32.6073C7.91566 37.1303 15.2758 37.1315 19.8002 32.6073L25.7668 26.6406C30.0341 22.3733 30.2236 15.6077 26.437 11.0542Z" fill="#FFFFFF"/>
<path d="M19.8001 16.1997C19.3858 15.7874 18.723 15.7874 18.3087 16.1997L15.3259 19.1825C14.912 19.5985 14.915 20.264 15.3259 20.6729C15.3259 20.6739 15.3259 20.6739 15.327 20.6739C15.7245 21.0746 16.4178 21.0725 16.8173 20.6739L19.8001 17.6911C20.2124 17.2769 20.2124 16.614 19.8001 16.1997Z" fill="#FFFFFF"/>
</g>
<defs>
<clipPath id="clip0_2_19">
<rect width="36" height="36" fill="white"/>
</clipPath>
</defs>
</svg>
