<svg width="25" height="25" viewBox="0 0 25 25" fill="none" xmlns="http://www.w3.org/2000/svg">
<path d="M8.05474 16.1623H8.05589C8.05684 16.1623 8.05779 16.1621 8.05875 16.1621H21.3379C21.6648 16.1621 21.9523 15.9452 22.0421 15.6309L24.9718 5.37701C25.0349 5.15594 24.9907 4.91829 24.8524 4.7348C24.7139 4.55132 24.4974 4.44336 24.2676 4.44336H6.36559L5.84203 2.08721C5.76745 1.75209 5.47028 1.51367 5.12696 1.51367H0.73243C0.327881 1.51367 7.62939e-06 1.84155 7.62939e-06 2.24609C7.62939e-06 2.65064 0.327881 2.97852 0.73243 2.97852H4.5395C4.63219 3.39603 7.04499 14.2538 7.18385 14.8785C6.40546 15.2168 5.85938 15.9929 5.85938 16.8945C5.85938 18.1061 6.8451 19.0918 8.05665 19.0918H21.3379C21.7424 19.0918 22.0703 18.7639 22.0703 18.3594C22.0703 17.9548 21.7424 17.627 21.3379 17.627H8.05665C7.65286 17.627 7.32423 17.2983 7.32423 16.8945C7.32423 16.4913 7.65172 16.1633 8.05474 16.1623ZM23.2966 5.9082L20.7853 14.6973H8.64411L6.69099 5.9082H23.2966Z" fill="#EB2D66"/>
<path d="M7.32414 21.2891C7.32414 22.5006 8.30986 23.4863 9.52141 23.4863C10.733 23.4863 11.7187 22.5006 11.7187 21.2891C11.7187 20.0775 10.733 19.0918 9.52141 19.0918C8.30986 19.0918 7.32414 20.0775 7.32414 21.2891ZM9.52141 20.5566C9.92519 20.5566 10.2538 20.8853 10.2538 21.2891C10.2538 21.6928 9.92519 22.0215 9.52141 22.0215C9.11762 22.0215 8.78899 21.6928 8.78899 21.2891C8.78899 20.8853 9.11762 20.5566 9.52141 20.5566Z" fill="#EB2D66"/>
<path d="M17.6757 21.2891C17.6757 22.5006 18.6614 23.4863 19.873 23.4863C21.0845 23.4863 22.0703 22.5006 22.0703 21.2891C22.0703 20.0775 21.0845 19.0918 19.873 19.0918C18.6614 19.0918 17.6757 20.0775 17.6757 21.2891ZM19.873 20.5566C20.2768 20.5566 20.6054 20.8853 20.6054 21.2891C20.6054 21.6928 20.2768 22.0215 19.873 22.0215C19.4692 22.0215 19.1406 21.6928 19.1406 21.2891C19.1406 20.8853 19.4692 20.5566 19.873 20.5566Z" fill="#EB2D66"/>
</svg>
